<svg width="24" height="24" viewBox="0 0 24 24" fill="none" xmlns="http://www.w3.org/2000/svg">
<path d="M3.14262 13.9669V3.92824C3.14262 3.40732 3.34956 2.90774 3.7179 2.53939C4.08625 2.17105 4.58583 1.96411 5.10675 1.96411H18.4628C18.9838 1.96411 19.4833 2.17105 19.8517 2.53939C20.22 2.90774 20.427 3.40732 20.427 3.92824V13.9669M3.14262 13.9669H20.427M3.14262 13.9669L1.68917 19.107C1.60662 19.3991 1.59287 19.7063 1.649 20.0045C1.70513 20.3028 1.82961 20.584 2.01268 20.8261C2.19575 21.0681 2.43242 21.2645 2.70412 21.3997C2.97582 21.5349 3.27517 21.6053 3.57866 21.6054H19.9909C20.2944 21.6053 20.5938 21.5349 20.8655 21.3997C21.1372 21.2645 21.3738 21.0681 21.5569 20.8261C21.74 20.584 21.8645 20.3028 21.9206 20.0045C21.9767 19.7063 21.963 19.3991 21.8804 19.107L20.427 13.9669" stroke="white" stroke-width="0.954785"/>
<path d="M10.8027 18.6592H12.7669M13.7489 5.8924L15.7131 7.85652L13.7489 9.82065M9.82067 5.8924L7.85654 7.85652L9.82067 9.82065" stroke="white" stroke-width="0.954785" stroke-linecap="round" stroke-linejoin="round"/>
</svg>
